<svg width="233" height="233" viewBox="0 0 233 233" fill="none" xmlns="http://www.w3.org/2000/svg">
    <path fill-rule="evenodd" clip-rule="evenodd"
        d="M67 0C29.9969 0 0 29.9969 0 67V166C0 203.003 29.9969 233 67 233H166C203.003 233 233 203.003 233 166V67C233 29.9969 203.003 0 166 0H67ZM47 114C44.7909 114 43 115.791 43 118C43 120.209 44.7909 122 47 122H98.9073C100.507 122.037 102.04 121.105 102.692 119.538L105.292 113.299L105.999 159.987C105.998 160.343 106.044 160.692 106.133 161.026C106.286 161.606 106.567 162.134 106.942 162.579C107.609 163.369 108.577 163.896 109.665 163.986C110.133 164.026 110.592 163.983 111.027 163.867C111.607 163.713 112.134 163.433 112.579 163.058C113.292 162.456 113.791 161.609 113.947 160.65L122 116.865V141.906C121.994 142.167 122.014 142.425 122.057 142.678C122.158 143.267 122.387 143.812 122.715 144.284C123.04 144.751 123.466 145.153 123.978 145.452C124.375 145.685 124.817 145.852 125.288 145.937C125.756 146.022 126.226 146.021 126.678 145.943C127.265 145.843 127.808 145.615 128.277 145.289C128.749 144.962 129.155 144.532 129.455 144.016C129.584 143.796 129.693 143.562 129.778 143.318L137.772 122H185C187.209 122 189 120.209 189 118C189 115.791 187.209 114 185 114H135.093C134.833 113.994 134.574 114.014 134.322 114.057C133.736 114.157 133.193 114.385 132.724 114.71C132.251 115.037 131.845 115.468 131.544 115.985C131.416 116.205 131.307 116.438 131.222 116.682L130 119.941V73.07C130.018 72.0898 129.674 71.1619 129.074 70.4401C128.699 69.9897 128.225 69.6196 127.676 69.367C127.27 69.1795 126.828 69.058 126.362 69.0162C125.276 68.9161 124.233 69.2664 123.44 69.9263C122.99 70.301 122.62 70.7755 122.367 71.324C122.219 71.644 122.112 71.9869 122.053 72.3458L113.386 119.472L113.001 94.0312C113.007 93.2167 112.762 92.4223 112.312 91.7558C111.994 91.2864 111.574 90.8804 111.068 90.5754C110.67 90.3345 110.226 90.161 109.754 90.0709C108.696 89.8668 107.619 90.1047 106.756 90.6883C106.285 91.0069 105.878 91.4285 105.572 91.9375C105.456 92.1304 105.355 92.3338 105.272 92.546L96.3333 114H47Z"
        fill="white" />
</svg>
    