<svg width="317" height="317" viewBox="0 0 317 317" fill="none" xmlns="http://www.w3.org/2000/svg">
    <g filter="url(#filter0_d_5_12)">
        <path fill-rule="evenodd" clip-rule="evenodd"
            d="M109 42C71.9969 42 42 71.9969 42 109V208C42 245.003 71.9969 275 109 275H208C245.003 275 275 245.003 275 208V109C275 71.9969 245.003 42 208 42H109ZM89 156C86.7909 156 85 157.791 85 160C85 162.209 86.7909 164 89 164H140.907C142.507 164.037 144.04 163.105 144.692 161.538L147.292 155.299L147.999 201.987C147.998 202.343 148.044 202.692 148.133 203.026C148.286 203.606 148.567 204.134 148.942 204.579C149.609 205.369 150.577 205.896 151.665 205.986C152.133 206.026 152.592 205.983 153.027 205.867C153.607 205.713 154.134 205.433 154.579 205.058C155.292 204.456 155.791 203.609 155.947 202.65L164 158.865V183.906C163.994 184.167 164.014 184.425 164.057 184.678C164.158 185.267 164.387 185.812 164.715 186.284C165.04 186.751 165.466 187.153 165.978 187.452C166.375 187.685 166.817 187.852 167.288 187.937C167.756 188.022 168.226 188.021 168.678 187.943C169.265 187.843 169.808 187.615 170.277 187.289C170.749 186.962 171.155 186.532 171.455 186.016C171.584 185.796 171.693 185.562 171.778 185.318L179.772 164H227C229.209 164 231 162.209 231 160C231 157.791 229.209 156 227 156H177.093C176.833 155.994 176.574 156.014 176.322 156.057C175.736 156.157 175.193 156.385 174.724 156.71C174.251 157.037 173.845 157.468 173.544 157.985C173.416 158.205 173.307 158.438 173.222 158.682L172 161.941V115.07C172.018 114.09 171.674 113.162 171.074 112.44C170.699 111.99 170.225 111.62 169.676 111.367C169.27 111.18 168.828 111.058 168.362 111.016C167.276 110.916 166.233 111.266 165.44 111.926C164.99 112.301 164.62 112.775 164.367 113.324C164.219 113.644 164.112 113.987 164.053 114.346L155.386 161.472L155.001 136.031C155.007 135.217 154.762 134.422 154.312 133.756C153.994 133.286 153.574 132.88 153.068 132.575C152.67 132.334 152.226 132.161 151.754 132.071C150.696 131.867 149.619 132.105 148.756 132.688C148.285 133.007 147.878 133.429 147.572 133.937C147.456 134.13 147.355 134.334 147.272 134.546L138.333 156H89Z"
            fill="white" />
    </g>
    <defs>
        <filter id="filter0_d_5_12" x="0" y="0" width="317" height="317"
            filterUnits="userSpaceOnUse" color-interpolation-filters="sRGB">
            <feFlood flood-opacity="0" result="BackgroundImageFix" />
            <feColorMatrix in="SourceAlpha" type="matrix"
                values="0 0 0 0 0 0 0 0 0 0 0 0 0 0 0 0 0 0 127 0" result="hardAlpha" />
            <feOffset />
            <feGaussianBlur stdDeviation="21" />
            <feComposite in2="hardAlpha" operator="out" />
            <feColorMatrix type="matrix" values="0 0 0 0 0 0 0 0 0 0 0 0 0 0 0 0 0 0 0.69 0" />
            <feBlend mode="normal" in2="BackgroundImageFix" result="effect1_dropShadow_5_12" />
            <feBlend mode="normal" in="SourceGraphic" in2="effect1_dropShadow_5_12" result="shape" />
        </filter>
    </defs>
</svg>
    